<svg xmlns="http://www.w3.org/2000/svg" viewBox="0 0 1280 420" role="img" aria-label="gwt — git worktree toolkit">
  <defs>
    <linearGradient id="bg" x1="0" y1="0" x2="0" y2="1"><stop offset="0" stop-color="#0f1a15"/><stop offset="1" stop-color="#0a110d"/></linearGradient>
    <radialGradient id="glow" cx="0.5" cy="0.34" r="0.6"><stop offset="0" stop-color="#2ea043" stop-opacity="0.16"/><stop offset="1" stop-color="#2ea043" stop-opacity="0"/></radialGradient>
  </defs>
  <rect width="1280" height="420" fill="url(#bg)"/>
  <rect width="1280" height="420" fill="url(#glow)"/>
  <g transform="translate(409.34 42.00) scale(4)"><g fill="none" stroke="#2ea043" stroke-width="1.5" stroke-linecap="round" stroke-linejoin="round"><path d="M10.2 19.8 L13.5 24 H16.5"/><path d="M23.5 24 H30"/><path d="M30 24 L30 14 Q30 12 32 12 H35"/><path d="M30 24 L30 34 Q30 36 32 36 H35"/><path d="M33.5 24 H41"/></g><circle cx="8" cy="17" r="3.5" fill="#2ea043"/><circle cx="20" cy="24" r="3.5" fill="#2ea043"/><circle cx="41.5" cy="12" r="3.5" fill="#40c463"/><circle cx="44.5" cy="24" r="3.5" fill="#40c463"/><circle cx="41.5" cy="36" r="3.5" fill="#40c463"/></g>
  <path d="M653.9557531546579 169.17352614015573Q650.543072398262 169.17352614015573 647.0785531587501 167.99221357063405Q643.6140339192383 166.81090100111237 640.4753307258804 164.57953281423806Q633.951526762064 159.98553948832037 635.2891819227792 149.091212458287L638.9314718784618 119.42714126807564Q639.6083576224382 113.91434927697442 641.9950732460159 109.97664071190212Q644.3817888695935 106.03893214682982 647.9371902368584 103.80756395995552Q651.607732229055 101.70745272525029 655.2967168827579 100.5261401557286Q658.9857015364607 99.3448275862069 662.3983822928568 99.3448275862069H684.4495502572616Q687.7309740614886 99.3448275862069 691.0976321704409 100.78865406006675Q694.464290279393 102.23248053392659 697.2092226162437 104.4638487208009Q699.9219222986193 106.95773081201335 701.2599134846228 111.02669632925473Q702.5979046706263 115.09566184649611 701.9693679083625 120.2146829810901L695.1360451596483 175.86763070077865Q694.4591594156718 181.3804226918799 692.2117589078821 185.25250278086764Q689.9643584000924 189.1245828698554 686.4918650032838 191.74972191323695Q683.1667448858819 194.2436040044494 679.5192142174074 195.6218020022247Q675.8716835489327 197.00000000000003 672.4590027925366 197.00000000000003H650.4078348281317Q643.4512163631707 197.00000000000003 636.8629470904041 192.93103448275863Q633.4456136654704 190.8309232480534 632.2078099442954 187.5494994438265Q630.9700062231202 184.26807563959957 631.5018450219588 179.93659621802004L631.6952409488092 178.36151279199112Q632.0175674935599 175.7363737486096 633.9173037986084 174.16129032258067Q635.8170401036567 172.58620689655174 639.4922347643909 172.58620689655174Q646.745926122434 173.3737486095662 646.1335056874077 178.36151279199112L645.9562260877948 179.80533926585096Q645.7789464881819 181.2491657397108 647.6039169927146 182.95550611790878Q649.4288874972474 184.6618464961068 654.2853947275032 184.6618464961068H670.6925137486379Q675.5490209788937 184.6618464961068 677.9219466095026 181.90545050055619Q680.2948722401115 179.14905450500558 680.7138967482874 175.7363737486096L687.5149868425266 120.34593993325919Q687.9178950234649 117.06451612903227 686.2137969732137 114.3737486095662Q684.5096989229625 111.68298109010013 679.6531916927065 111.68298109010013H663.2460726715719Q658.3895654413161 111.68298109010013 656.024697974326 114.3737486095662Q653.6598305073359 117.06451612903227 653.2569223263976 120.34593993325919L649.8563772792779 148.04115684093438Q649.4534690983396 151.3225806451613 651.1414508213534 154.14460511679647Q652.829432544367 156.9666295884316 657.6859397746229 156.9666295884316H671.3366628002069Q676.0619130782936 156.9666295884316 675.320562025367 163.00444938820914Q674.9821191533789 165.76084538375974 673.6569228058538 167.46718576195775Q672.3317264583287 169.17352614015573 669.8378443671162 169.17352614015573ZM742.4506869151973 174.29254727474975 742.5980601946038 174.16129032258067Q741.308586002957 177.18020022246944 738.5706326689127 178.09899888765295Q735.8326793348684 179.0177975528365 733.2075402914869 179.0177975528365Q730.7136582002745 179.0177975528365 728.1357049714711 178.09899888765295Q725.5577517426678 177.18020022246944 725.1408855561166 174.16129032258067L725.2560261810481 174.29254727474975L716.4096229559415 106.30144605116797Q715.511425273889 100.78865406006675 722.4311584158374 98.95105672969967Q729.0722613262101 97.24471635150168 730.1523912764131 103.41379310344828L730.1685076036506 103.2825361512792L735.5463980499098 146.07230255839823H739.0903357584749L754.9760715636062 103.2825361512792Q755.9707991964398 100.5261401557286 758.3725519864425 99.67296996662961Q760.7743047764453 98.8197997775306 762.7431590589815 98.8197997775306Q764.9745272458558 98.8197997775306 767.0193945023641 99.80422691879868Q769.0642617588724 100.78865406006675 769.5455932543737 103.2825361512792Q770.1467180433441 108.00778642936598 770.6315390402486 112.07675194660736Q771.1163600371532 116.14571746384874 771.5677852124483 119.95216907675196Q772.0192103877433 123.75862068965517 772.4211234141915 127.43381535038932Q772.8230364406395 131.10901001112347 773.389602240866 135.0467185761958L774.9073673733953 146.20355951056732H778.4513050819604Q782.3818666315822 135.57174638487209 786.4022311481448 124.74304783092325Q790.4225956647074 113.91434927697442 794.3531572143291 103.2825361512792L794.2057839349226 103.41379310344828Q796.8008486454537 97.24471635150168 803.0229270476506 98.95105672969967Q809.523635681423 100.5261401557286 807.2394338569427 106.30144605116797L781.8277725659202 174.29254727474975L781.9751458453269 174.16129032258067Q780.8169286058492 177.18020022246944 778.0133467957203 178.09899888765295Q775.2097649855915 179.0177975528365 772.58462594221 179.0177975528365Q770.0907438509975 179.0177975528365 767.5784190982787 178.09899888765295Q765.0660943455599 177.18020022246944 764.5179712068397 174.16129032258067L764.6331118317712 174.29254727474975L759.8425561815137 137.40934371523917H756.2986184729486ZM835.9802217260769 111.68298109010013 830.1138786116147 159.46051167964407Q829.6948541034388 162.87319243604006 830.9130519959732 164.71078976640712Q832.1312498885076 166.5483870967742 836.8565001665943 166.5483870967742H840.2691809229904Q845.3882020575843 166.5483870967742 844.3843371003196 172.58620689655174Q843.6268697201556 178.75528364849833 838.7703624898998 178.75528364849833H834.4388830683201Q830.2386605989097 178.75528364849833 826.7004547196946 177.63959955506118Q823.1622488404795 176.52391546162403 820.0074293198841 174.4238042269188L819.9913129926465 174.5550611790879Q814.0754448079629 170.35483870967744 815.3969836414406 159.59176863181312L821.2794430831403 111.68298109010013H816.1604219485464Q811.4351716704596 111.68298109010013 811.9301251462855 105.51390433815351Q812.6875925264496 99.3448275862069 817.6753567088746 99.3448275862069H822.7943778434685L824.5188248578846 85.30033370411569Q825.2924085652862 79.00000000000001 832.7740548389236 79.00000000000001Q839.9931872082228 79.00000000000001 839.2196035008212 85.30033370411569L837.4951564864051 99.3448275862069H848.3894835164385Q853.5085046510325 99.3448275862069 852.4885233665302 105.51390433815351Q851.7310559863662 111.68298109010013 846.8745487561104 111.68298109010013Z" fill="#e9f1eb"/>
  <text x="640" y="270" text-anchor="middle" fill="#8fa79a" font-family="-apple-system, Helvetica, Arial, sans-serif" font-size="36" font-weight="500">git worktree toolkit</text>
  <rect x="452" y="312" width="376" height="56" rx="28" fill="#12211a" stroke="#294036" stroke-width="1.5"/>
  <text x="640" y="350" text-anchor="middle" fill="#7f9e8c" font-family="ui-monospace, SFMono-Regular, Menlo, Consolas, monospace" font-size="28" font-weight="500">npx @bojangles/gwt</text>
</svg>
