<svg xmlns="http://www.w3.org/2000/svg" viewBox="0 0 120.8 48" role="img" aria-label="gwt — git worktree toolkit">
  <title>gwt — git worktree toolkit</title>
  <g transform="translate(-0.50 0)"><g fill="none" stroke="#2ea043" stroke-width="1.5" stroke-linecap="round" stroke-linejoin="round"><path d="M10.2 19.8 L13.5 24 H16.5"/><path d="M23.5 24 H30"/><path d="M30 24 L30 14 Q30 12 32 12 H35"/><path d="M30 24 L30 34 Q30 36 32 36 H35"/><path d="M33.5 24 H41"/></g><circle cx="8" cy="17" r="3.5" fill="#2ea043"/><circle cx="20" cy="24" r="3.5" fill="#2ea043"/><circle cx="41.5" cy="12" r="3.5" fill="#40c463"/><circle cx="44.5" cy="24" r="3.5" fill="#40c463"/><circle cx="41.5" cy="36" r="3.5" fill="#40c463"/></g>
  <path d="M66.24925697227575 31.925472747497217Q65.3816262714971 31.925472747497217 64.50081629535003 31.625139043381534Q63.62000631920296 31.32480533926585 62.822030931061114 30.75750834260289Q61.163436702972184 29.589543937708566 61.50351852349302 26.81979977753059L62.429524444429276 19.27808676307008Q62.60161404035548 17.876529477196886 63.2084061480447 16.875417130144605Q63.81519825573393 15.874304783092327 64.71911385758096 15.30700778642937Q65.65230249966483 14.773081201334819 66.59017995399606 14.472747497219135Q67.5280574083273 14.172413793103452 68.39568810910595 14.172413793103452H74.00191725259872Q74.83617754180895 14.172413793103452 75.69210756950866 14.539488320355954Q76.54803759720838 14.906562847608456 77.24590175064499 15.473859844271416Q77.93557116141845 16.107897664071192 78.27573841209733 17.142380422691883Q78.61590566277619 18.176863181312573 78.45610818084471 19.478309232480534L76.71882273625633 33.62736373748609Q76.54673314033013 35.02892102335929 75.9753601298751 36.01334816462736Q75.40398711942007 36.99777530589544 74.52114981514671 37.66518353726362Q73.67578029377336 38.2992213570634 72.74844198822896 38.6496106785317Q71.82110368268455 39.0 70.95347298190592 39.0H65.34724383841315Q63.57861202528745 39.0 61.90362831187221 37.96551724137931Q61.034814729261974 37.43159065628476 60.72011886794627 36.59733036707453Q60.405423006630556 35.76307007786429 60.540636260572576 34.66184649610678L60.58980471655149 34.26140155728587Q60.67175214318302 33.59399332591769 61.15473594955126 33.19354838709677Q61.6377197559195 32.79310344827586 62.57209127983496 32.79310344827586Q64.41625009967642 32.99332591768632 64.26054998907652 34.26140155728587L64.21547890442918 34.62847608453838Q64.17040781978184 34.995550611790875 64.6343833717817 35.4293659621802Q65.09835892378155 35.86318131256952 66.33306415181269 35.86318131256952H70.50436559786385Q71.739070825895 35.86318131256952 72.34235700316844 35.162402669632925Q72.9456431804419 34.46162402669633 73.05217483506289 33.59399332591769L74.7812655369881 19.511679644048947Q74.88369982027751 18.67741935483871 74.45045455326448 17.99332591768632Q74.01720928625146 17.30923248053393 72.78250405822031 17.30923248053393H68.61120261216914Q67.37649738413799 17.30923248053393 66.77525989253033 17.99332591768632Q66.17402240092268 18.67741935483871 66.07158811763327 19.511679644048947L65.20704276667065 26.552836484983317Q65.10460848338124 27.387096774193548 65.5337563790627 28.10456062291435Q65.96290427474415 28.82202447163515 67.1976095027753 28.82202447163515H70.66813230588987Q71.8694671223526 28.82202447163515 71.6809880411001 30.35706340378198Q71.594943243137 31.057842046718577 71.25802891749501 31.491657397107897Q70.92111459185304 31.925472747497217 70.28707677205327 31.925472747497217ZM88.7479689452942 33.22691879866518 88.78543672819418 33.193548387096776Q88.45760430658906 33.961067853170185 87.76151447589984 34.19466073414905Q87.06542464521063 34.42825361512792 86.39801641384244 34.42825361512792Q85.76397859404265 34.42825361512792 85.1085667562113 34.19466073414905Q84.45315491837994 33.961067853170185 84.34717198959575 33.193548387096776L84.37644502983258 33.22691879866518L82.12735946412751 15.941045606229146Q81.89900412123279 14.539488320355954 83.65825830986374 14.072302558398224Q85.3466743040263 13.638487208008904 85.62128361339994 15.206896551724142L85.6253809847315 15.173526140155733L86.99264126767878 26.052280311457174H87.89364238002582L91.93238877116087 15.173526140155733Q92.18528562696602 14.472747497219135 92.79590074306843 14.255839822024475Q93.40651585917084 14.038932146829815 93.90707203269699 14.038932146829815Q94.47436902935995 14.038932146829815 94.99425053525188 14.289210233592884Q95.51413204114381 14.539488320355954 95.63650445525431 15.173526140155733Q95.78933279143325 16.374860956618466 95.91259236691745 17.409343715239157Q96.03585194240165 18.443826473859847 96.1506210547648 19.411568409343715Q96.26539016712796 20.379310344827587 96.36757144503848 21.31368186874305Q96.469752722949 22.248053392658512 96.61379487554899 23.24916573971079L96.99966736687 26.085650723025587H97.90066847921705Q98.89996378844293 23.382647385984427 99.92209036045037 20.629588431590655Q100.9442169324578 17.876529477196886 101.94351224168368 15.173526140155733L101.9060444587837 15.206896551724142Q102.56580667332551 13.638487208008904 104.14769101286707 14.072302558398224Q105.80041354687704 14.472747497219135 105.21968426946677 15.941045606229146L98.75909241581701 33.22691879866518L98.79656019871699 33.193548387096776Q98.50209818868028 33.961067853170185 97.78932315220686 34.19466073414905Q97.07654811573343 34.42825361512792 96.40913988436523 34.42825361512792Q95.77510206456546 34.42825361512792 95.1363754325183 34.19466073414905Q94.49764880047115 33.961067853170185 94.35829546011854 33.193548387096776L94.38756850035537 33.22691879866518L93.16963062317127 23.849833147942157H92.26862951082421ZM112.52666423619583 17.30923248053393 111.03522107150204 29.456062291434925Q110.92868941688104 30.32369299221357 111.23840074549148 30.790878754171302Q111.54811207410191 31.258064516129032 112.74944689056466 31.258064516129032H113.61707759134329Q114.91852364251126 31.258064516129032 114.66330373812193 32.79310344827586Q114.47072728553783 34.3615127919911 113.23602205750669 34.3615127919911H112.1347984757492Q111.06694530556008 34.3615127919911 110.16740143796302 34.07786429365962Q109.26785757036596 33.79421579532814 108.46578481089254 33.260289210233594L108.46168743956096 33.293659621802Q106.95765315531935 32.225806451612904 107.2936376045086 29.489432703003338L108.78917814053398 17.30923248053393H107.48773208936602Q106.28639727290327 17.30923248053393 106.41223290235055 15.74082313681869Q106.60480935493463 14.172413793103452 107.87288499453419 14.172413793103452H109.17433104570216L109.61274977818083 10.601779755283651Q109.80942360209649 9.000000000000004 111.71153706149582 9.000000000000004Q113.54690969775834 9.000000000000004 113.35023587384266 10.601779755283651L112.911817141364 14.172413793103452H115.68156130154198Q116.98300735270993 14.172413793103452 116.72369007698903 15.74082313681869Q116.53111362440494 17.30923248053393 115.29640839637379 17.30923248053393Z" fill="#2ea043"/>
</svg>
