<svg xmlns="http://www.w3.org/2000/svg" viewBox="0 0 1280 640" role="img" aria-label="gwt — git worktree toolkit">
  <defs>
    <linearGradient id="bg" x1="0" y1="0" x2="0" y2="1"><stop offset="0" stop-color="#0f1a15"/><stop offset="1" stop-color="#0a110d"/></linearGradient>
    <radialGradient id="glow" cx="0.5" cy="0.4" r="0.55"><stop offset="0" stop-color="#2ea043" stop-opacity="0.16"/><stop offset="1" stop-color="#2ea043" stop-opacity="0"/></radialGradient>
  </defs>
  <rect width="1280" height="640" fill="url(#bg)"/>
  <rect width="1280" height="640" fill="url(#glow)"/>
  <g transform="translate(404.59 118.00) scale(4)"><g fill="none" stroke="#2ea043" stroke-width="1.5" stroke-linecap="round" stroke-linejoin="round"><path d="M10.2 19.8 L13.5 24 H16.5"/><path d="M23.5 24 H30"/><path d="M30 24 L30 14 Q30 12 32 12 H35"/><path d="M30 24 L30 34 Q30 36 32 36 H35"/><path d="M33.5 24 H41"/></g><circle cx="8" cy="17" r="3.5" fill="#2ea043"/><circle cx="20" cy="24" r="3.5" fill="#2ea043"/><circle cx="41.5" cy="12" r="3.5" fill="#40c463"/><circle cx="44.5" cy="24" r="3.5" fill="#40c463"/><circle cx="41.5" cy="36" r="3.5" fill="#40c463"/></g>
  <path d="M651.9712024141378 246.23025583982204Q648.4428375643047 246.23025583982204 644.86087699464 245.00889877641825Q641.2789164249751 243.78754171301446 638.0338165131983 241.4805339265851Q631.2888666523033 236.73081201334816 632.6718660557547 225.46718576195775L636.4376234675622 194.79755283648498Q637.1374544909954 189.09788654060068 639.6050757289315 185.02669632925472Q642.0726969668677 180.95550611790878 645.748620414379 178.64849833147943Q649.5435875588533 176.47719688542827 653.3576225398003 175.25583982202448Q657.1716575207474 174.0344827586207 660.7000223705807 174.0344827586207H683.4986875541179Q686.8913460635729 174.0344827586207 690.3721281762183 175.52725250278087Q693.8529102888638 177.02002224694104 696.690891179506 179.32703003337042Q699.4955467833181 181.90545050055619 700.8788936027455 186.1123470522803Q702.2622404221729 190.31924360400444 701.6123973289849 195.61179087875416L694.5474365209922 253.15127919911012Q693.8476054975589 258.85094549499445 691.5240219217085 262.8542825361513Q689.2004383458581 266.8576195773081 685.6102333084798 269.5717463848721Q682.1723972548947 272.15016685205785 678.4012214790141 273.5750834260289Q674.6300457031336 275.0 671.1016808533005 275.0H648.3030156697632Q641.1105796297187 275.0 634.2989791951634 270.7931034482759Q630.7658039592151 268.6218020022247 629.4860407898645 265.2291434927697Q628.206277620514 261.8364849833148 628.7561448532116 257.3581757508343L628.9560965741925 255.7296996662959Q629.2893494424941 253.01557285873193 631.2534835883916 251.38709677419354Q633.2176177342891 249.75862068965517 637.0173952648786 249.75862068965517Q644.5169744655672 250.57285873192436 643.8837940157943 255.7296996662959L643.7005049382284 257.2224694104561Q643.5172158606625 258.71523915461626 645.4040497721287 260.4794215795328Q647.2908836835948 262.24360400444937 652.3120182775881 262.24360400444937H669.2753108248628Q674.2964454188561 262.24360400444937 676.7498092064347 259.3937708565072Q679.2031729940135 256.54393770856507 679.6364017228055 253.01557285873193L686.668037243968 195.74749721913238Q687.084603329345 192.35483870967744 685.3227392434919 189.57285873192438Q683.560875157639 186.79087875417133 678.5397405636456 186.79087875417133H661.5764480163709Q656.5553134223776 186.79087875417133 654.1102809565065 189.57285873192438Q651.6652484906353 192.35483870967744 651.2486824052584 195.74749721913238L647.7328646446771 224.38153503893216Q647.3162985593002 227.7741935483871 649.0615000017381 230.69187986651838Q650.806701444176 233.60956618464962 655.8278360381693 233.60956618464962H669.9412954375019Q674.8267236911171 233.60956618464962 674.0602420940235 239.85205784204672Q673.7103265823068 242.70189098998887 672.3402083246962 244.46607341490545Q670.9700900670855 246.23025583982204 668.3916695998997 246.23025583982204ZM743.4659644377462 251.52280311457176 743.6183334215394 251.38709677419354Q742.2851482403453 254.5083426028921 739.4543829288758 255.45828698553947Q736.6236176174064 256.4082313681869 733.9094908098423 256.4082313681869Q731.3310703426566 256.4082313681869 728.6657288688091 255.45828698553947Q726.0003873949615 254.5083426028921 725.5693901512391 251.38709677419354L725.6884338482023 251.52280311457176L716.5421525476683 181.2269187986652Q715.6135074865631 175.52725250278087 722.7678078536624 173.62736373748612Q729.63403289659 171.86318131256954 730.7507774213761 178.24137931034483L730.7674400647912 178.10567296996663L736.3276318821102 222.3459399332592H739.9917030723215L756.4159383962707 178.10567296996663Q757.4443856098783 175.25583982202448 759.9275537486947 174.3737486095662Q762.4107218875112 173.49165739710793 764.4463169931842 173.49165739710793Q766.7533247796135 173.49165739710793 768.8675095702407 174.5094549499444Q770.9816943608679 175.52725250278087 771.4793421782506 178.10567296996663Q772.1008440787116 182.99110122358178 772.6020996856807 187.1979977753059Q773.1033552926498 191.40489432703004 773.57008301626 195.34037819799778Q774.0368107398701 199.27586206896552 774.4523479367062 203.07563959955507Q774.8678851335424 206.87541713014463 775.4536565541157 210.94660734149056L777.0228713521544 222.48164627363738H780.6869425423658Q784.7507434665511 211.48943270300333 788.907391526048 200.29365962180202Q793.0640395855448 189.09788654060068 797.12784050973 178.10567296996663L796.9754715259368 178.24137931034483Q799.6585045317402 171.86318131256954 806.0915008458759 173.62736373748612Q812.8125724841831 175.25583982202448 810.4509400893812 181.2269187986652L784.1778665512056 251.52280311457176L784.3302355349988 251.38709677419354Q783.132756694183 254.5083426028921 780.2341382125244 255.45828698553947Q777.3355197308657 256.4082313681869 774.6213929233018 256.4082313681869Q772.042972456116 256.4082313681869 769.4454841524575 255.45828698553947Q766.8479958487991 254.5083426028921 766.2812922646985 251.38709677419354L766.4003359616617 251.52280311457176L761.4473885944462 213.3893214682981H757.7833174042349ZM840.1659919540796 186.79087875417133 834.1007897509915 236.1879866518354Q833.6675610221995 239.71635150166853 834.9270537585485 241.6162402669633Q836.1865464948976 243.51612903225808 841.0719747485127 243.51612903225808H844.600339598346Q849.8928868730957 243.51612903225808 848.8549925952457 249.75862068965517Q848.0718483547371 256.1368186874305 843.0507137607437 256.1368186874305H838.5724045282632Q834.2298016361609 256.1368186874305 830.5716565745995 254.9833147942158Q826.9135115130381 253.8298109010011 823.6517489578462 251.65850945494995L823.6350863144311 251.79421579532814Q817.5186802251819 247.45161290322582 818.8850169852182 236.32369299221358L824.9668818317214 186.79087875417133H819.6743345569716Q814.7889063033565 186.79087875417133 815.3006378631087 180.412680756396Q816.0837821036174 174.0344827586207 821.2406230379889 174.0344827586207H826.5331703127385L828.3160731581519 159.5139043381535Q829.1158800420756 153.0 836.8511414436329 153.0Q844.3149901644338 153.0 843.5151832805101 159.5139043381535L841.7322804350968 174.0344827586207H852.9959066864872Q858.2884539612369 174.0344827586207 857.2338970399719 180.412680756396Q856.4507527994633 186.79087875417133 851.42961820547 186.79087875417133Z" fill="#e9f1eb"/>
  <text x="640" y="372" text-anchor="middle" fill="#8fa79a" font-family="-apple-system, Helvetica, Arial, sans-serif" font-size="42" font-weight="500">git worktree toolkit</text>
  <rect x="452" y="422" width="376" height="58" rx="29" fill="#12211a" stroke="#294036" stroke-width="1.5"/>
  <text x="640" y="460" text-anchor="middle" fill="#7f9e8c" font-family="ui-monospace, SFMono-Regular, Menlo, Consolas, monospace" font-size="28" font-weight="500">npx @bojangles/gwt</text>
</svg>
